<svg width="100%" height="100%" viewBox="0 0 24 18" fill="currentColor" xmlns="http://www.w3.org/2000/svg">
<path d="M23.1978 0.625333C23.0988 0.436852 22.9502 0.278992 22.768 0.168788C22.5859 0.0585844 22.3771 0.000222004 22.1642 0H1.16417C0.951656 0.000877811 0.7434 0.0596711 0.561799 0.170057C0.380199 0.280442 0.232125 0.438244 0.133502 0.626492C0.0348789 0.81474 -0.010562 1.02631 0.00206593 1.23845C0.0146939 1.45059 0.0849129 1.65528 0.205172 1.8305L10.7052 16.9972C10.8122 17.1526 10.9554 17.2797 11.1225 17.3675C11.2895 17.4553 11.4754 17.5012 11.6642 17.5012C11.8529 17.5012 12.0388 17.4553 12.2059 17.3675C12.3729 17.2797 12.5161 17.1526 12.6232 16.9972L23.1232 1.8305C23.2446 1.65564 23.3158 1.45083 23.3289 1.23835C23.3421 1.02587 23.2968 0.813845 23.1978 0.625333ZM11.6642 14.2835L3.39017 2.33333H19.9382L11.6642 14.2835Z" fill="currentColor"/>
</svg>
