<svg width="100%" height="100%" viewBox="0 0 23 23" fill="currentColor" xmlns="http://www.w3.org/2000/svg">
<path d="M11.2961 0.516602C12.7242 0.516602 14.0938 1.08391 15.1036 2.09372C16.1134 3.10353 16.6807 4.47313 16.6807 5.90122C16.6807 7.32931 16.1134 8.6989 15.1036 9.70872C14.0938 10.7185 12.7242 11.2858 11.2961 11.2858C9.868 11.2858 8.4984 10.7185 7.48859 9.70872C6.47878 8.6989 5.91147 7.32931 5.91147 5.90122C5.91147 4.47313 6.47878 3.10353 7.48859 2.09372C8.4984 1.08391 9.868 0.516602 11.2961 0.516602ZM11.2961 3.20891C10.582 3.20891 9.89724 3.49256 9.39234 3.99747C8.88743 4.50237 8.60378 5.18717 8.60378 5.90122C8.60378 6.61526 8.88743 7.30006 9.39234 7.80497C9.89724 8.30987 10.582 8.59352 11.2961 8.59352C12.0101 8.59352 12.6949 8.30987 13.1998 7.80497C13.7047 7.30006 13.9884 6.61526 13.9884 5.90122C13.9884 5.18717 13.7047 4.50237 13.1998 3.99747C12.6949 3.49256 12.0101 3.20891 11.2961 3.20891ZM11.2961 12.632C14.8903 12.632 22.0653 14.4224 22.0653 18.0166V22.0551H0.526855V18.0166C0.526855 14.4224 7.70186 12.632 11.2961 12.632ZM11.2961 15.1897C7.29801 15.1897 3.08455 17.1551 3.08455 18.0166V19.4974H19.5076V18.0166C19.5076 17.1551 15.2942 15.1897 11.2961 15.1897Z" fill="currentColor"/>
</svg>
