<svg width="33" height="33" viewBox="0 0 33 33" fill="none" xmlns="http://www.w3.org/2000/svg">
<path d="M13.5352 22.6392C11.0544 22.6392 8.95504 21.7798 7.23714 20.061C5.51925 18.3422 4.65985 16.2428 4.65894 13.763C4.65803 11.2831 5.51743 9.18373 7.23714 7.46493C8.95686 5.74612 11.0562 4.88672 13.5352 4.88672C16.0142 4.88672 18.114 5.74612 19.8346 7.46493C21.5552 9.18373 22.4142 11.2831 22.4114 13.763C22.4114 14.7644 22.2521 15.7089 21.9335 16.5965C21.6148 17.4842 21.1824 18.2694 20.6362 18.9522L28.2834 26.5994C28.5338 26.8497 28.6589 27.1684 28.6589 27.5553C28.6589 27.9422 28.5338 28.2608 28.2834 28.5112C28.033 28.7615 27.7144 28.8867 27.3275 28.8867C26.9406 28.8867 26.622 28.7615 26.3716 28.5112L18.7244 20.864C18.0416 21.4102 17.2564 21.8426 16.3688 22.1613C15.4811 22.4799 14.5366 22.6392 13.5352 22.6392ZM13.5352 19.9081C15.2422 19.9081 16.6933 19.3108 17.8886 18.1164C19.084 16.922 19.6812 15.4708 19.6803 13.763C19.6794 12.0551 19.0822 10.6044 17.8886 9.41087C16.6951 8.21736 15.244 7.61969 13.5352 7.61787C11.8264 7.61605 10.3757 8.21372 9.18309 9.41087C7.99049 10.608 7.39282 12.0587 7.39009 13.763C7.38736 15.4672 7.98502 16.9184 9.18309 18.1164C10.3812 19.3145 11.8319 19.9117 13.5352 19.9081Z" fill="white"/>
</svg>
