<svg width="100%" height="100%" viewBox="0 0 24 24" fill="currentColor" xmlns="http://www.w3.org/2000/svg">
<path d="M7.73559 19.6031L14.6521 12.5756C14.8038 12.4223 14.8889 12.2153 14.8889 11.9996C14.8889 11.7839 14.8038 11.5769 14.6521 11.4236L7.73709 4.39459C7.58548 4.2403 7.50052 4.03265 7.50052 3.81634C7.50052 3.60003 7.58548 3.39237 7.73709 3.23809C7.81116 3.16211 7.89968 3.10174 7.99745 3.06051C8.09521 3.01929 8.20024 2.99805 8.30634 2.99805C8.41244 2.99805 8.51747 3.01929 8.61524 3.06051C8.713 3.10174 8.80153 3.16211 8.87559 3.23809L15.7906 10.2641C16.245 10.7269 16.4996 11.3495 16.4996 11.9981C16.4996 12.6467 16.245 13.2693 15.7906 13.7321L8.87559 20.7581C8.8015 20.8343 8.71289 20.8949 8.61498 20.9362C8.51708 20.9776 8.41187 20.9989 8.30559 20.9989C8.19931 20.9989 8.09411 20.9776 7.9962 20.9362C7.8983 20.8949 7.80968 20.8343 7.73559 20.7581C7.58398 20.6038 7.49902 20.3961 7.49902 20.1798C7.49902 19.9635 7.58398 19.7559 7.73559 19.6016" fill="currentColor"/>
</svg>
