<svg width="100%" height="100%" viewBox="0 0 25 25" fill="currentColor" xmlns="http://www.w3.org/2000/svg">
<path d="M7.8656 24.9577C7.20499 24.9577 6.63966 24.7227 6.16963 24.2527C5.6996 23.7827 5.46418 23.2169 5.46338 22.5555C5.46258 21.8941 5.69799 21.3288 6.16963 20.8596C6.64127 20.3903 7.20659 20.1549 7.8656 20.1533C8.52461 20.1517 9.09033 20.3871 9.56276 20.8596C10.0352 21.332 10.2702 21.8973 10.2678 22.5555C10.2654 23.2137 10.0304 23.7794 9.56276 24.2527C9.09513 24.7259 8.52941 24.9609 7.8656 24.9577ZM19.8767 24.9577C19.2161 24.9577 18.6508 24.7227 18.1807 24.2527C17.7107 23.7827 17.4753 23.2169 17.4745 22.5555C17.4737 21.8941 17.7091 21.3288 18.1807 20.8596C18.6524 20.3903 19.2177 20.1549 19.8767 20.1533C20.5357 20.1517 21.1014 20.3871 21.5739 20.8596C22.0463 21.332 22.2813 21.8973 22.2789 22.5555C22.2765 23.2137 22.0415 23.7794 21.5739 24.2527C21.1062 24.7259 20.5405 24.9609 19.8767 24.9577ZM6.84465 5.73998L9.72732 11.7455H18.1351L21.4381 5.73998H6.84465ZM5.7036 3.33777H23.42C23.8804 3.33777 24.2307 3.54316 24.4709 3.95394C24.7112 4.36471 24.7212 4.7799 24.501 5.19949L20.237 12.8866C20.0168 13.287 19.7217 13.5972 19.3518 13.8174C18.9819 14.0377 18.5763 14.1478 18.1351 14.1478H9.18682L7.8656 16.55H21.0778C21.4181 16.55 21.7036 16.6653 21.9342 16.8959C22.1648 17.1265 22.2797 17.4116 22.2789 17.7511C22.2781 18.0906 22.1628 18.3761 21.933 18.6075C21.7032 18.8389 21.4181 18.9538 21.0778 18.9522H7.8656C6.96476 18.9522 6.28414 18.557 5.82371 17.7667C5.36329 16.9764 5.34327 16.1904 5.76366 15.4089L7.38515 12.4662L3.06116 3.33777H1.86005C1.51973 3.33777 1.23467 3.22246 1.00486 2.99185C0.775047 2.76123 0.65974 2.47617 0.65894 2.13666C0.658139 1.79714 0.773445 1.51208 1.00486 1.28147C1.23627 1.05085 1.52134 0.935547 1.86005 0.935547H3.81185C4.03206 0.935547 4.24225 0.995602 4.44243 1.11571C4.64262 1.23582 4.79276 1.40598 4.89285 1.62618L5.7036 3.33777Z" fill="currentColor"/>
</svg>
