<svg width="100%" height="100%" viewBox="0 0 22 22" fill="currentColor" xmlns="http://www.w3.org/2000/svg">
<path d="M10.5208 21.5166C8.59108 21.5166 7.02075 19.9463 7.02075 18.0166L7.08259 14.4548L3.54175 14.5166C1.59109 14.5166 0.020752 12.9463 0.020752 11.0166C0.020752 9.08693 1.59109 7.5166 3.52075 7.5166L7.08259 7.4536L7.02075 4.0376C7.02075 2.08693 8.59108 0.516602 10.5208 0.516602C12.4504 0.516602 14.0208 2.08693 14.0208 4.0166L14.0849 7.4536L17.5418 7.5166C19.4504 7.5166 21.0208 9.08693 21.0208 11.0166C21.0208 12.9463 19.4504 14.5166 17.5208 14.5166L14.0849 14.4548L14.0208 18.0376C14.0208 19.9463 12.4504 21.5166 10.5208 21.5166ZM9.35408 12.1833V18.0376C9.35408 18.6594 9.87792 19.1833 10.5208 19.1833C11.1636 19.1833 11.6874 18.6594 11.6874 18.0166V12.1833H17.5418C18.1636 12.1833 18.6874 11.6594 18.6874 11.0166C18.6874 10.3738 18.1636 9.84993 17.5208 9.84993H11.6874V4.0166C11.6874 3.35277 11.1636 2.84993 10.5208 2.84993C9.87792 2.84993 9.35408 3.37377 9.35408 4.0166V9.84993H3.52075C2.85692 9.84993 2.35409 10.3738 2.35409 11.0166C2.35409 11.6594 2.87792 12.1833 3.52075 12.1833H9.35408Z" fill="currentColor"/>
</svg>
